<svg width="20" height="20" viewBox="0 0 20 20" fill="none" xmlns="http://www.w3.org/2000/svg">
<path d="M10.7495 9.997L16.3775 4.3635C16.4768 4.26372 16.5325 4.12866 16.5324 3.9879C16.5323 3.84713 16.4765 3.71215 16.377 3.6125C16.178 3.4145 15.8275 3.4135 15.6265 3.6135L10 9.247L4.37154 3.612C4.17154 3.4145 3.82104 3.4155 3.62204 3.613C3.57265 3.6622 3.53355 3.72074 3.50702 3.78521C3.48049 3.84968 3.46707 3.91879 3.46754 3.9885C3.46754 4.1305 3.52254 4.2635 3.62204 4.362L9.25004 9.9965L3.62254 15.6315C3.52323 15.7314 3.46762 15.8667 3.4679 16.0076C3.46818 16.1484 3.52434 16.2835 3.62404 16.383C3.72054 16.4785 3.85704 16.5335 3.99804 16.5335H4.00104C4.14254 16.533 4.27904 16.4775 4.37354 16.381L10 10.7475L15.6285 16.3825C15.728 16.4815 15.861 16.5365 16.002 16.5365C16.0717 16.5366 16.1407 16.5229 16.2051 16.4963C16.2695 16.4696 16.328 16.4305 16.3773 16.3813C16.4266 16.332 16.4657 16.2735 16.4923 16.2091C16.5189 16.1447 16.5326 16.0757 16.5325 16.006C16.5325 15.8645 16.4775 15.731 16.3775 15.6325L10.7495 9.997Z" fill="black"/>
</svg>
