<svg width="19" height="19" viewBox="0 0 19 19" fill="none" xmlns="http://www.w3.org/2000/svg">
<path d="M17.59 12.5L15.77 11.2C16.07 10.12 16.09 8.95 15.77 7.78L17.59 6.5L16.14 4L14.11 4.92C13.32 4.12 12.32 3.5 11.15 3.21L10.95 1H8.05L7.85 3.21C6.68 3.5 5.68 4.12 4.89 4.92L2.86 4L1.41 6.5L3.23 7.78C2.91 8.95 2.93 10.12 3.23 11.2L1.41 12.5L2.86 15L4.89 14.07C5.68 14.86 6.68 15.46 7.85 15.77L8.05 18H10.95L11.15 15.77C12.32 15.46 13.32 14.86 14.11 14.07L16.14 15L17.59 12.5ZM11.5 0C11.77 0 12 0.2 12 0.46L12.18 2.5C12.94 2.78 13.62 3.19 14.23 3.68L16.08 2.81C16.31 2.69 16.6 2.77 16.74 3L18.74 6.5C18.88 6.71 18.8 7 18.58 7.15L16.91 8.32C17.04 9.12 17.03 9.91 16.91 10.68L18.58 11.85C18.8 12 18.88 12.29 18.74 12.5L16.74 16C16.6 16.21 16.31 16.29 16.08 16.17L14.23 15.31C13.62 15.8 12.94 16.2 12.18 16.5L12 18.5C12 18.79 11.77 19 11.5 19H7.5C7.36739 19 7.24022 18.9473 7.14645 18.8536C7.05268 18.7598 7 18.6326 7 18.5L6.82 16.5C6.06 16.2 5.38 15.8 4.77 15.31L2.92 16.17C2.69 16.29 2.4 16.21 2.26 16L0.260002 12.5C0.120002 12.29 0.200002 12 0.420002 11.85L2.09 10.68C1.97 9.91 1.96 9.12 2.09 8.32L0.420002 7.15C0.200002 7 0.120002 6.71 0.260002 6.5L2.26 3C2.4 2.77 2.69 2.69 2.92 2.81L4.77 3.68C5.38 3.19 6.06 2.78 6.82 2.5L7 0.46C7 0.2 7.23 0 7.5 0H11.5ZM9.5 6C10.4283 6 11.3185 6.36875 11.9749 7.02513C12.6313 7.6815 13 8.57174 13 9.5C13 10.4283 12.6313 11.3185 11.9749 11.9749C11.3185 12.6313 10.4283 13 9.5 13C8.57174 13 7.68151 12.6313 7.02513 11.9749C6.36875 11.3185 6 10.4283 6 9.5C6 8.57174 6.36875 7.6815 7.02513 7.02513C7.68151 6.36875 8.57174 6 9.5 6ZM9.5 7C8.83696 7 8.20108 7.26339 7.73224 7.73223C7.26339 8.20107 7 8.83696 7 9.5C7 10.163 7.26339 10.7989 7.73224 11.2678C8.20108 11.7366 8.83696 12 9.5 12C10.163 12 10.7989 11.7366 11.2678 11.2678C11.7366 10.7989 12 10.163 12 9.5C12 8.83696 11.7366 8.20107 11.2678 7.73223C10.7989 7.26339 10.163 7 9.5 7Z" fill="white"/>
</svg>
